<svg width="17" height="17" viewBox="0 0 17 17" fill="none" xmlns="http://www.w3.org/2000/svg">
<path d="M16.5 8.5C16.5 12.9183 12.9183 16.5 8.5 16.5M16.5 8.5C16.5 4.08172 12.9183 0.5 8.5 0.5M16.5 8.5H0.5M8.5 16.5C4.08172 16.5 0.5 12.9183 0.5 8.5M8.5 16.5C6.44579 14.3431 5.3 11.4786 5.3 8.5C5.3 5.52139 6.44579 2.65692 8.5 0.5M8.5 16.5C10.5542 14.3431 11.7 11.4786 11.7 8.5C11.7 5.52139 10.5542 2.65692 8.5 0.5M0.5 8.5C0.5 4.08172 4.08172 0.5 8.5 0.5" stroke="white" stroke-linecap="round" stroke-linejoin="round"/>
</svg>
