<svg xmlns:xlink="http://www.w3.org/1999/xlink" xmlns="http://www.w3.org/2000/svg" viewBox="0 0 1399 307" fill="none" id="logo" width="1399"  height="307" ><path id="logo__c" d="M112.159 125.941C104.034 109.123 88.6613 99.3201 71.2291 103.173C49.2773 108.022 39.1035 130.918 45.8877 161.572C53.0239 193.839 72.1241 208.232 95.0444 203.167C112.799 199.242 122.284 183.949 124.631 165.493L162.92 176.322C156.644 209.186 133.528 233.249 102.861 240.026C53.469 250.943 14.1975 223.408 2.62975 171.135C-8.3657 121.443 15.7089 77.2022 63.8091 66.5686C99.6421 58.6485 131.073 73.7017 147.111 103.324L112.159 125.941Z" fill="#1F3633"></path><path id="logo__h" class="logo__to-hide" d="M222.525 238.598H177.232V0H222.525V85.2593C232.444 75.0168 249.304 65.4295 266.497 65.4295C295.922 65.4295 327.329 79.6419 327.329 128.547V238.593H281.704V131.524C281.704 111.367 269.471 103.104 255.257 103.104C245.005 103.104 223.518 109.054 222.525 146.064V238.598Z" fill="#1F3633"></path><path id="logo__a-f" class="logo__to-hide" d="M448.994 125.912C448.994 113.352 439.735 100.797 421.554 100.797C392.794 100.797 380.889 123.599 378.575 132.189L344.523 112.032C357.088 85.2644 382.542 65.4346 423.873 65.4346C465.203 65.4346 491.978 89.8894 491.978 121.614V192.994C491.978 199.603 496.277 202.908 501.565 202.908C506.525 202.908 514.458 200.596 516.444 199.603L509.498 234.961C505.859 237.273 494.952 242.563 484.04 242.563C468.168 242.563 456.6 233.308 454.286 217.448C443.707 228.351 423.868 243.223 396.761 243.223C369.654 243.223 343.862 225.711 343.862 193.981C343.862 152.341 382.214 141.439 413.293 137.802C424.533 136.482 438.752 135.157 448.999 134.497V125.907L448.994 125.912ZM387.829 189.689C387.829 200.263 395.763 206.541 407.008 206.541C419.901 206.541 446.353 197.951 449.327 169.859V162.589C442.053 163.249 429.16 164.901 421.222 166.226C402.048 169.531 387.829 177.129 387.829 189.689Z" fill="#1F3633"></path><path id="logo__t" class="logo__to-hide" d="M612.369 233.865C604.426 237.483 593.836 241.751 581.604 241.727C554.492 241.663 538.331 225.764 538.399 196.679L538.615 105.803L509.189 105.734L509.277 68.392L538.703 68.4604L538.761 43.3456L583.164 1.14864L583.007 68.5631L617.72 68.6462L617.632 105.988L583.247 105.91L583.051 189.185C583.032 197.775 587.644 203.407 596.243 203.426C602.196 203.441 613.113 200.82 620.058 198.527L612.369 233.87V233.865Z" fill="#1F3633"></path><path id="logo__a-s" class="logo__to-hide" d="M743.253 125.912C743.253 113.352 733.994 100.797 715.813 100.797C687.048 100.797 675.148 123.599 672.834 132.189L638.781 112.032C651.347 85.2644 676.801 65.4346 718.132 65.4346C759.462 65.4346 786.237 89.8894 786.237 121.614V192.994C786.237 199.603 790.536 202.908 795.824 202.908C800.783 202.908 808.717 200.596 810.703 199.603L803.757 234.961C800.118 237.273 789.211 242.563 778.298 242.563C762.426 242.563 750.859 233.308 748.545 217.448C737.965 228.351 718.127 243.223 691.019 243.223C663.912 243.223 638.121 225.711 638.121 193.981C638.121 152.341 676.473 141.439 707.552 137.802C718.792 136.482 733.011 135.157 743.258 134.497V125.907L743.253 125.912ZM682.088 189.689C682.088 200.263 690.022 206.541 701.267 206.541C714.16 206.541 740.611 197.951 743.585 169.859V162.589C736.312 163.249 723.419 164.901 715.48 166.226C696.302 169.531 682.088 177.129 682.088 189.689Z" fill="#1F3633"></path><g id="logo__i" class="logo__to-hide" fill="#1F3633"><path id="logo__point" d="M816.262 28.9674C816.262 43.869 827.58 54.9084 841.941 54.9084C856.302 54.9084 867.894 43.869 867.894 28.9674C867.894 14.0657 856.849 3.3001 841.941 3.3001C827.033 3.3001 816.262 14.6133 816.262 28.9674Z" fill="#1F3633"></path><path id="logo__i-barre" d="M837.589 68.0939L880.207 72.9634L861.825 240.495L819.208 235.625L837.589 68.0939Z" fill="#1F3633"></path></g><path id="logo__g" class="logo__to-hide" d="M933.097 251.818C937.396 263.713 949.297 270.323 965.496 270.323C996.908 270.323 1013.77 247.521 1011.78 216.456C1002.52 230.336 984.67 241.903 961.862 241.903C918.218 241.903 888.132 208.858 888.132 153.666C888.132 98.4745 919.211 65.4298 962.522 65.4298C987.649 65.4298 1005.5 80.3021 1015.09 92.1971L1018.73 70.0548H1055.43V214.139C1055.43 271.971 1022.69 307 963.515 307C924.17 307 893.424 286.843 888.464 251.813H933.097V251.818ZM1010.46 149.046C1010.46 124.924 993.601 103.774 971.449 103.774C947.316 103.774 932.769 123.604 932.769 153.676C932.769 183.748 948.969 204.238 972.442 204.238C991.948 204.238 1010.46 187.713 1010.46 158.634V149.046Z" fill="#1F3633"></path><path id="logo__n" class="logo__to-hide" d="M1118.25 146.396V238.598H1072.95V70.0596H1111.64L1116.27 93.8543C1124.2 78.6544 1143.05 65.4346 1162.22 65.4346C1198.59 65.4346 1223.06 86.5844 1223.06 128.552V238.598H1177.43V131.857C1177.43 114.339 1166.19 103.437 1150.98 103.437C1140.73 103.437 1119.57 109.387 1118.25 146.396H1118.25Z" fill="#1F3633"></path><path id="logo__e" class="logo__to-hide" d="M1387.45 208.374C1369 235.611 1338.51 249.236 1303.54 242.025C1258.21 232.677 1229.46 193.682 1240.94 138.016C1251.03 89.1459 1287.66 57.2207 1338.18 67.6342C1385.13 77.3144 1406.4 119.829 1396.38 168.377C1395.71 171.614 1393.46 179.25 1393.46 179.25L1376.03 177.006L1283.42 157.915C1278.3 179.465 1288.42 200.786 1311.41 205.524C1328.24 208.995 1343.2 201.955 1352.88 187.757L1387.45 208.379V208.374ZM1292.05 125.945L1354.87 138.896C1358.14 123.036 1348.71 106.585 1329.93 102.713C1311.14 98.8407 1296.23 110.613 1292.05 125.945Z" fill="#1F3633"></path><path class="logo__accent" d="M418.496 33.2941L402.56 53.735L366.194 53.6177L396.417 11.4158L441.382 11.5576L470.998 53.9551L434.299 53.8377L418.496 33.2941Z" stroke="#5FD580" fill="#5FD580"></path></svg>