<?xml version="1.0" encoding="UTF-8"?>
<svg id="Calque_1" data-name="Calque 1" xmlns="http://www.w3.org/2000/svg" version="1.1" viewBox="0 0 1280 1024">
  <defs>
    <style>
      .cls-1 {
        fill: #1d1d1b;
        stroke-width: 0px;
      }
    </style>
  </defs>
  <path class="cls-1" d="M467.39,907.89c-33.13,0-66.59-1.71-87.11-2.75-5.34-.28-9.66-.5-12.67-.62l-3.91-.12c-19.1-.51-58.84-1.59-58.09-48.27.66-41.44,57.27-44.27,84.48-45.62,5.55-.28,10.34-.52,12.83-.98,26.55-4.93,29.53-73.62,28.44-99.67-.1-2.53,1.86-4.66,4.39-4.76,2.32-.3,4.65,1.86,4.76,4.38.43,10.4,3.11,101.81-35.93,109.05-3.08.57-7.91.81-14.03,1.12-26.3,1.31-75.26,3.75-75.78,36.63-.56,34.73,23.98,38.3,49.17,38.98l4.02.13c3.04.12,7.39.34,12.77.62,27.84,1.43,79.7,4.06,121.66,1.96l1.01-.04c8.37-.36,23.95-1.03,25.02-27.34,1.31-31.38,1.89-63.32,1.9-63.65,0-.69.18-1.37.5-1.99.95-1.87,3.16-3.15,5.25-2.67,2.05.47,3.66,1.99,3.69,4.09,0,.32.59,32.27,1.89,63.65,1.08,26.32,16.66,26.99,25.03,27.34l1.01.04c42,2.11,93.82-.53,121.67-1.95,5.37-.27,9.73-.5,12.76-.62l4.03-.13c25.19-.69,49.74-4.26,49.17-38.98-.42-25.86-30.85-30.58-64.71-33.44-12.73-1.08-21.93-1.85-26.75-4.96-14.4-9.26-21.74-56-23.06-65.27-.36-2.5,1.39-4.82,3.89-5.18,2.47-.35,4.81,1.38,5.18,3.88,3.05,21.35,10.95,53.73,18.95,58.87,2.91,1.87,12.91,2.71,22.57,3.53,28.87,2.44,72.5,6.14,73.09,42.41.76,46.68-38.98,47.76-58.08,48.28l-3.92.12c-3.01.12-7.32.34-12.66.61-28.01,1.43-80.15,4.09-122.6,1.96l-.93-.04c-6.61-.28-24.36-1.03-31.16-20.83-6.64,20.34-24.66,21.11-31.33,21.4l-.94.04c-11.35.57-23.39.8-35.48.8Z"/>
  <path class="cls-1" d="M565.82,635.36c-2.86,0-5.74-.03-8.66-.08-2.52-.04-4.54-2.13-4.5-4.65.04-2.53,2.57-4.5,4.66-4.5,77.26,1.43,135.33-15.97,168.13-49.99,23.11-23.95,33.78-55.52,31.75-93.82-5.68-106.89-101.23-130.67-180.39-131.8-108.84-1.47-181.27,51.12-183.72,134.19-2.43,83.03,36.66,127.25,119.51,135.19,2.51.24,4.36,2.48,4.12,4.99-.25,2.52-2.45,4.46-5,4.12-87.36-8.36-130.36-57-127.79-144.57,2.57-87.18,80.3-144.7,193-143.07,119.12,1.7,184.62,50.27,189.4,140.47,2.18,40.94-9.36,74.81-34.3,100.66-33.84,35.09-89.75,52.86-166.22,52.86Z"/>
  <path class="cls-1" d="M578.8,499.39c-1.96,0-4.01-.17-6.16-.49-13.45-2.03-20.69-11.36-24.26-21.7-2.66,6.33-6.12,11.08-10.42,14.33-6.02,4.57-13.41,6.11-22.56,4.74-24.45-3.69-28.38-31.49-27.05-45.67.24-2.51,2.44-4.34,4.98-4.13,2.51.23,4.36,2.46,4.14,4.97-.13,1.33-2.7,32.45,19.29,35.77,6.61,1.01,11.73.02,15.68-2.98,6.26-4.74,10.42-15.12,12.38-30.87.21-1.72,1.38-3.17,3.01-3.75,1.48-.53,3.5-.39,4.74.56,1.22.96,2.29,2.34,2.15,3.89-.13,1.33-2.7,32.46,19.29,35.77,6.62.99,11.72.02,15.68-2.98,6.25-4.74,10.41-15.13,12.37-30.87.3-2.52,2.58-4.37,5.1-3.98,2.51.31,4.29,2.6,3.98,5.1-2.31,18.54-7.52,30.66-15.93,37.04-4.6,3.5-10.01,5.22-16.4,5.22Z"/>
  <g>
    <path class="cls-1" d="M496.46,545.58l83.29,5.9s-9.58,30.96-42.75,27.27c-33.17-3.69-40.54-33.17-40.54-33.17Z"/>
    <path class="cls-1" d="M542.39,582.92c-1.86,0-3.79-.11-5.81-.33-35.43-3.93-43.77-35.75-43.85-36.07-.3-1.2,0-2.47.79-3.42.79-.95,1.83-1.55,3.24-1.37l83.29,5.9c1.17.08,2.24.7,2.91,1.67.66.97.85,2.2.5,3.33-.1.32-9.77,30.3-41.07,30.3ZM502.15,549.85c3.66,8.01,13.26,22.61,35.28,25.05,22.33,2.45,32.8-12.16,36.7-19.96l-71.99-5.1Z"/>
  </g>
  <path class="cls-1" d="M707.95,666.4c-2.49,0-4.53-2-4.58-4.5-.04-2.53,1.98-4.61,4.5-4.65,95.96-1.6,168.33-37.21,203.8-100.27,30.62-54.45,30.2-126.91-1.05-180.3-32.54-55.6-79.52-82.26-124.97-108.04-48.91-27.75-99.45-56.43-133.06-120.59-47.72,39.62-109.33,65.78-168.97,91.11-100.39,42.63-195.22,82.9-213.58,180.98-18.15,106.34,8.05,169.22,84.96,203.83,2.31,1.04,3.33,3.75,2.3,6.05-1.04,2.32-3.78,3.33-6.05,2.3-50.52-22.73-114.84-69.63-90.22-213.79,19.28-102.98,116.3-144.18,219.01-187.79,60.87-25.84,123.8-52.57,171.01-93.37,1.07-.93,2.56-1.29,3.9-1.02,1.39.28,2.57,1.19,3.2,2.46,32.31,65.31,80.75,92.79,132.02,121.88,46.49,26.38,94.56,53.66,128.34,111.38,33.35,56.98,33.79,131.33,1.13,189.41-37.12,66.01-112.27,103.28-211.61,104.94h-.08Z"/>
  <path class="cls-1" d="M920.85,288.68c-1.76,0-3.39-1.01-4.15-2.64-.83-1.79-.43-3.92,1.01-5.27,18.06-17,18.58-35.63,17.88-43.26l-24.31-.04c-23.72,0-43.03-19.3-43.03-43.03v-69.48c0-23.73,19.31-43.03,43.04-43.03h160.11c23.72,0,43.03,19.3,43.03,43.03v69.48c0,23.73-19.31,43.03-43.03,43.03l-81.47.55c-23.61,44.74-66.68,50.4-68.53,50.62-.18.02-.37.03-.55.03ZM911.29,91.08c-18.68,0-33.89,15.2-33.89,33.88v69.48c0,18.68,15.21,33.88,33.89,33.88l28.26.04c2.11,0,3.94,1.45,4.44,3.5.25,1.04,5.05,22.1-9.95,43.93,14.03-5.24,35.61-17.33,48.99-44.35.77-1.55,2.34-2.53,4.08-2.55l84.28-.57c18.71,0,33.91-15.2,33.91-33.88v-69.48c0-18.68-15.2-33.88-33.88-33.88h-160.11Z"/>
  <g>
    <circle class="cls-1" cx="956.79" cy="196.82" r="5.74"/>
    <path class="cls-1" d="M956.79,205.8c-4.95,0-8.97-4.03-8.97-8.98s4.02-8.97,8.97-8.97,8.97,4.03,8.97,8.97-4.02,8.98-8.97,8.98ZM956.79,194.31c-1.38,0-2.5,1.12-2.5,2.5s1.13,2.51,2.5,2.51,2.5-1.13,2.5-2.51-1.13-2.5-2.5-2.5Z"/>
  </g>
  <g>
    <circle class="cls-1" cx="995.38" cy="196.82" r="5.74"/>
    <path class="cls-1" d="M995.37,205.8c-4.95,0-8.97-4.03-8.97-8.98s4.02-8.97,8.97-8.97,8.98,4.03,8.98,8.97-4.03,8.98-8.98,8.98ZM995.37,194.31c-1.38,0-2.5,1.12-2.5,2.5s1.13,2.51,2.5,2.51,2.51-1.13,2.51-2.51-1.13-2.5-2.51-2.5Z"/>
  </g>
  <g>
    <circle class="cls-1" cx="1031.15" cy="196.82" r="5.74"/>
    <path class="cls-1" d="M1031.15,205.8c-4.95,0-8.97-4.03-8.97-8.98s4.02-8.97,8.97-8.97,8.98,4.03,8.98,8.97-4.03,8.98-8.98,8.98ZM1031.15,194.31c-1.38,0-2.5,1.12-2.5,2.5s1.13,2.51,2.5,2.51,2.51-1.13,2.51-2.51-1.13-2.5-2.51-2.5Z"/>
  </g>
</svg>