<?xml version="1.0" encoding="UTF-8"?>
<svg id="Calque_1" data-name="Calque 1" xmlns="http://www.w3.org/2000/svg" version="1.1" viewBox="0 0 1280 1024">
  <defs>
    <style>
      .cls-1 {
        fill: #1d1d1b;
        stroke-width: 0px;
      }
    </style>
  </defs>
  <path class="cls-1" d="M634.95,511.58c-1.92,0-3.93-.16-6.02-.47-13.45-2.03-20.69-11.36-24.26-21.71-2.66,6.33-6.12,11.08-10.42,14.34-5.94,4.51-13.55,6.09-22.56,4.74-24.45-3.69-28.38-31.49-27.05-45.67.24-2.52,2.57-4.32,4.98-4.13,2.51.23,4.36,2.46,4.14,4.97-.13,1.33-2.7,32.45,19.29,35.77,6.62,1,11.72.02,15.67-2.98,6.26-4.74,10.42-15.13,12.38-30.87.21-1.73,1.39-3.18,3.03-3.76,1.46-.51,3.5-.38,4.73.58,1.22.96,2.29,2.34,2.15,3.88-.13,1.33-2.7,32.46,19.29,35.77,6.61,1,11.72.02,15.67-2.98,6.26-4.74,10.42-15.13,12.38-30.87.31-2.51,2.65-4.34,5.1-3.98,2.51.31,4.29,2.6,3.98,5.1-2.31,18.54-7.52,30.66-15.93,37.04-4.57,3.46-10.12,5.21-16.55,5.21Z"/>
  <path class="cls-1" d="M1015.13,744.13c-9.42,0-15.8-1.93-16.38-2.11-1.89-.59-3.17-2.33-3.2-4.31-.03-1.98,1.22-3.75,3.09-4.38,14.35-4.93,20.06-14.82,22.15-20l-7.77-3.53c-15.6-7.04-22.57-25.48-15.53-41.1l19.7-43.62c7.05-15.6,25.48-22.57,41.11-15.53l51.18,23.11c15.61,7.05,22.58,25.49,15.53,41.11l-19.69,43.61c-7.05,15.62-25.46,22.6-41.11,15.53l-7.37-3.01c-15.13,11.52-30.56,14.23-41.72,14.23ZM1015.07,735h.04c10.04,0,24.28-2.56,38.09-13.88,1.3-1.07,3.07-1.33,4.64-.7l9.99,4.09c11.14,5.03,24.16.13,29.14-10.89l19.69-43.61c2.41-5.34,2.6-11.29.54-16.77-2.07-5.48-6.15-9.81-11.49-12.23l-51.18-23.11c-11-4.96-24.02-.06-28.99,10.96l-19.7,43.62c-4.97,11.01-.05,24.02,10.96,28.99l11.45,5.21c1.92.87,2.99,2.95,2.6,5.02-.13.69-2.74,13.63-15.8,23.31Z"/>
  <path class="cls-1" d="M603.46,643.98c-3.66,0-7.36-.03-11.1-.09-188.3-3.12-189.5-91.68-190.15-139.26h0c-.45-33.2,13.66-65.61,39.72-91.24,27.42-26.98,80.49-58.48,177.58-55.62,183.63,5.51,211.05,90.59,211.05,140.82,0,36.32-12.17,66.71-36.18,90.31-37.18,36.57-101.39,55.09-190.93,55.09ZM411.36,504.5c.64,47.6,1.73,127.27,181.14,130.23,92.79,1.57,158.59-16.08,195.47-52.36,22.19-21.82,33.44-50.01,33.44-83.79,0-81-71.8-127.76-202.16-131.67-93.99-2.85-144.74,27.26-170.89,52.99-24.27,23.87-37.4,53.92-36.99,84.59h0Z"/>
  <path class="cls-1" d="M597.02,611.61c-1.14,0-2.31-.04-3.5-.13-30.89-2.29-42.23-34.15-42.69-35.5-.47-1.37-.27-2.87.55-4.07s2.14-1.94,3.58-2c2-.08,49.24-2.01,82.02,7.5,1.31.38,2.37,1.31,2.91,2.56.55,1.24.51,2.66-.1,3.88-.59,1.18-14.21,27.76-42.78,27.76ZM562.22,578.9c4.42,8.2,14.46,22.15,31.98,23.45,18.02,1.3,29.28-10.64,34.34-17.69-23.48-5.54-53.14-5.91-66.33-5.76Z"/>
  <g>
    <path class="cls-1" d="M499.36,908.07c-33.1,0-66.55-1.7-87.07-2.74-5.38-.28-9.73-.5-12.76-.62l-3.92-.13c-19.09-.52-58.84-1.6-58.08-48.27.75-46.12,70.39-46.5,93.27-46.63,1.91,0,3.52-.02,4.75-.05,11.81-.31,21.3-4.59,29.02-13.06,23.9-26.26,20.42-82.81,20.38-83.37-.17-2.52,1.74-4.71,4.26-4.88,2.36-.11,4.7,1.73,4.87,4.26.17,2.48,3.79,60.98-22.73,90.14-9.36,10.28-21.32,15.68-35.55,16.07-1.29.04-2.96.04-4.94.05-20.67.12-83.57.46-84.17,37.61-.56,34.72,23.98,38.29,49.17,38.97l4.04.13c3.05.13,7.43.35,12.85.63,27.82,1.41,79.64,4.04,121.57,1.96l1.02-.05c8.37-.36,23.93-1.04,25.01-27.34,1.31-31.38,1.89-63.32,1.9-63.64,0-.68.17-1.34.47-1.94.93-1.9,3.15-3.2,5.24-2.73,2.06.46,3.68,1.98,3.72,4.1,0,.31.6,32.25,1.9,63.64,1.07,26.32,16.65,26.99,25.03,27.34l1,.04c42.04,2.13,95.88-.63,121.76-1.97,5.34-.27,9.65-.49,12.67-.62l4.02-.12c25.2-.68,49.75-4.25,49.18-38.98-.41-25.86-30.85-30.57-64.71-33.43-12.73-1.08-21.93-1.86-26.75-4.95-14.4-9.26-21.75-56-23.07-65.28-.2-1.38.25-2.78,1.21-3.79.96-1.02,2.33-1.56,3.72-1.42,120.67,10.37,232.15,12.49,233.26,12.51,2.52.04,4.52,2.11,4.5,4.63-.38,35.14,6.5,59.9,20.48,73.6,13.85,13.57,32.55,14.92,49.15,14.34,21.62-.68,36.46-11.46,36.76-21.1.04-1.52.85-2.91,2.14-3.73,1.29-.8,2.9-.95,4.29-.31l7.3,3.23c9.44,4.17,19.94,4.42,29.54.71,9.63-3.72,17.23-10.97,21.4-20.4l77.04-174.15c4.17-9.44,4.42-19.93.71-29.55-3.72-9.62-10.97-17.22-20.4-21.4l-69.85-30.9c-19.5-8.62-42.33.22-50.95,19.7l-15.6,35.26c-.65,1.47-2.03,2.5-3.63,2.7-1.61.21-3.2-.47-4.17-1.75-4.79-6.2-13.02-7.83-19.08-8.1-.26-.01-.51-.02-.75-.02-13.36,0-19.38,16.75-31.61,59.94-13.66,48.27-74.35,47.43-92.64,46.03-15.38-1.18-83.21-9.68-122.28-14.64-2.47-.31-4.23-2.53-3.98-5.01.24-2.47,2.49-4.26,4.9-4.1,34.49,2.66,99.85.41,150.62-44.17,67.74-59.48,91.67-132.09,67.4-204.48-30.99-92.42-158.3-177.06-206.23-208.93l-4.38-2.91c-37.18-24.79-82.84-64.68-94.23-74.78-9.69,6.49-42.96,28.48-98.99,62.39-11.57,7-26.33,14.62-43.44,23.46-84.57,43.65-212.38,109.62-216.73,231.61-6.46,180.96,153.45,214.26,222.51,220.18,2.51.21,4.38,2.43,4.17,4.95-.21,2.53-2.51,4.44-4.95,4.17-151.47-12.98-235.62-96.67-230.87-229.63,4.55-127.34,140.48-197.5,221.69-239.42,16.96-8.75,31.61-16.31,42.91-23.15,66.91-40.5,101.19-63.89,101.53-64.12,1.73-1.19,4.08-1.04,5.64.38.54.48,53.81,48.3,95.87,76.35l4.37,2.91c48.65,32.34,177.86,118.24,209.83,213.64,25.16,75.01-.37,153.11-70.03,214.27-31.28,27.46-67.68,39.62-99.67,44.43,28.84,3.55,56.09,6.79,65.06,7.48,16.52,1.27,71.37,2.2,83.13-39.39,11.71-41.33,18.86-66.6,40.3-66.6.43,0,.86.01,1.29.03,8.38.38,15.44,2.64,20.77,6.6l12.94-29.27c10.66-24.09,38.93-35.01,63.02-24.37l69.85,30.9c11.67,5.16,20.63,14.56,25.23,26.46,4.6,11.9,4.29,24.89-.88,36.55l-77.04,174.15c-5.16,11.67-14.56,20.63-26.46,25.23-11.92,4.6-24.89,4.3-36.55-.88l-2.12-.94c-4.78,13.02-22.7,22.96-44.38,23.64-17.38.55-39.43-.88-55.84-16.96-15.4-15.09-23.03-39.89-23.23-75.7-21.69-.5-118.53-3.13-223.57-11.95,3.52,20.99,10.75,48.46,18.07,53.16,2.91,1.87,12.9,2.72,22.56,3.53,28.88,2.45,72.51,6.13,73.09,42.42.76,46.7-38.99,47.76-58.09,48.27l-3.91.13c-2.99.12-7.27.34-12.56.61-28.03,1.43-80.18,4.09-122.7,1.96l-.93-.04c-6.61-.29-24.36-1.05-31.15-20.84-6.65,20.33-24.65,21.11-31.31,21.4l-.96.04c-11.33.57-23.36.8-35.43.8Z"/>
    <path class="cls-1" d="M1095.91,822.58c-1.98,0-4.04-.21-6.17-.63-2.15-.45-3.55-2.55-3.11-4.7.45-2.15,2.49-3.55,4.7-3.11,11.97,2.47,20.47-4.93,22.62-13.49,1.33-5.3.25-11.7-6.77-13.79-.93-.28-1.72-.88-2.23-1.69l-2.28-3.62c-.86-1.36-.81-3.1.12-4.42.92-1.31,2.52-1.93,4.12-1.6,11.93,2.66,19.99-5.41,22.34-14.06,1.63-5.98.86-13.82-6.65-16.25-1.14-.37-2.06-1.23-2.49-2.35-.44-1.12-.35-2.37.25-3.41l1.89-3.31c.89-1.58,2.79-2.35,4.5-1.87,11.16,2.98,18.45-5.95,21.28-14.53,3.08-9.35,2.04-20.98-6-24.14-2.05-.8-3.06-3.12-2.25-5.16.8-2.04,3.11-3.05,5.17-2.25,12.59,4.94,14.88,21.23,10.65,34.05-3.42,10.38-11.41,19.6-22.53,20.55,4.51,5.02,6.1,12.59,3.87,20.77-2.53,9.31-9.79,17.67-20.03,19.88,4.76,4.51,6.69,11.53,4.78,19.13-2.61,10.42-12.25,20.01-25.77,20.01Z"/>
  </g>
  <path class="cls-1" d="M1054.79,713.05c-.66,0-1.32-.04-1.98-.14-2.27-.31-4.66-1-7.1-2.05-18.21-7.85-14.4-27.84-9.05-44.39,8.63-26.69,25.89-28.95,38.86-26.1,10.71,2.33,15.91,12.11,15.37,20.12-.49,7.33-5.31,12.42-12.26,12.97-2.42.19-4.75-.29-6.98-.77-5.1-1.08-7.39-1.58-10.14,3.79-1.68,3.28-.46,7.3,3.63,11.98,4.16,4.74,4.88,11.46,1.82,17.12-2.55,4.72-7.1,7.47-12.17,7.47ZM1067.15,648.55c-7.67,0-16.31,3.84-21.78,20.74-8.24,25.48-2.28,30.48,3.96,33.17,1.67.72,3.27,1.19,4.73,1.39,2.79.34,4.34-1.69,4.84-2.61.92-1.71,1.31-4.51-.65-6.75-6.61-7.56-8.35-15.44-4.9-22.19,5.94-11.56,14.85-9.69,20.18-8.56,1.67.35,3.23.68,4.35.6h0c2.96-.24,3.74-2.56,3.86-4.46.29-4.19-2.49-9.32-8.18-10.57-1.98-.43-4.17-.76-6.43-.76Z"/>
  <path class="cls-1" d="M1026.35,835.7c-.55,0-1.12-.1-1.66-.31-2.22-.87-54.55-21.37-75.48-35.33-23.47-15.65-21.77-34.9-9.96-67.18,11.5-31.42,57.91-123.45,59.87-127.35,1.14-2.26,3.89-3.16,6.15-2.02,2.25,1.14,3.16,3.89,2.02,6.15-.48.95-48.13,95.46-59.44,126.38-12.04,32.9-10.66,45.02,6.44,56.41,20.12,13.41,73.2,34.21,73.73,34.42,2.36.92,3.52,3.58,2.6,5.93-.71,1.81-2.43,2.91-4.26,2.91Z"/>
</svg>