<svg width="1280" height="1024" viewBox="0 0 1280 1024" fill="none" xmlns="http://www.w3.org/2000/svg">
<path d="M532.61 916C499.54 916 466.11 914.29 445.62 913.25C440.23 912.97 435.87 912.75 432.84 912.63L428.92 912.5C409.83 911.98 370.08 910.9 370.84 864.23C371.5 822.99 444.69 820.04 479.87 818.63C486.95 818.34 493.06 818.09 495.6 817.63C522.16 812.7 525.14 744.01 524.05 717.95C523.95 715.43 525.91 713.29 528.44 713.19C530.9 713.25 533.1 715.05 533.2 717.58C533.63 727.98 536.31 819.39 497.27 826.63C494.09 827.23 488.28 827.46 480.23 827.78C447.86 829.09 380.51 831.78 379.99 864.38C379.43 899.1 403.97 902.67 429.16 903.35L433.2 903.48C436.25 903.61 440.65 903.83 446.08 904.11C473.91 905.53 525.68 908.19 567.61 906.07L568.63 906.02C577 905.66 592.57 904.98 593.65 878.68C594.95 847.3 595.53 815.36 595.54 815.04C595.54 814.34 595.72 813.66 596.04 813.05C596.99 811.17 599.19 809.85 601.29 810.39C603.34 810.85 604.95 812.38 604.98 814.48C604.98 814.79 605.57 846.74 606.87 878.12C607.95 904.43 623.52 905.11 631.89 905.46L632.91 905.51C674.86 907.6 726.63 904.96 754.47 903.55C759.9 903.27 764.28 903.05 767.33 902.92L771.36 902.79C796.55 902.11 821.1 898.54 820.53 863.82C820.08 836.05 768.59 832.66 734.51 830.42C716.11 829.21 706.29 828.44 701.61 825.43C687.22 816.16 679.87 769.43 678.55 760.15C678.19 757.66 679.94 755.33 682.44 754.97C684.88 754.68 687.25 756.35 687.62 758.86C690.68 780.21 698.57 812.58 706.57 817.72C709.48 819.6 723.11 820.49 735.12 821.28C772.55 823.75 829.11 827.47 829.69 863.68C830.45 910.35 790.71 911.43 771.61 911.95L767.69 912.08C764.66 912.2 760.31 912.42 754.93 912.7C726.93 914.13 674.86 916.79 632.44 914.65L631.48 914.61C624.88 914.32 607.15 913.56 600.35 893.78C593.69 914.11 575.69 914.88 569.03 915.17L568.07 915.21C556.73 915.78 544.69 916.01 532.6 916.01L532.61 916Z" fill="#1D1D1B"/>
<path d="M615.47 474.02C613.55 474.02 611.54 473.86 609.45 473.55C596 471.52 588.76 462.19 585.19 451.85C582.53 458.19 579.07 462.93 574.77 466.19C568.76 470.76 561.36 472.33 552.21 470.93C527.76 467.24 523.83 439.44 525.16 425.25C525.4 422.74 527.64 420.84 530.14 421.13C532.65 421.36 534.5 423.59 534.28 426.1C534.15 427.42 531.58 458.56 553.57 461.88C560.18 462.87 565.29 461.91 569.25 458.89C575.5 454.15 579.66 443.77 581.62 428.02C581.83 426.29 583.01 424.83 584.67 424.26C586.14 423.76 588.16 423.89 589.39 424.85C590.61 425.81 591.67 427.18 591.53 428.73C591.4 430.05 588.83 461.18 610.83 464.5C617.43 465.5 622.54 464.53 626.49 461.51C632.75 456.77 636.91 446.39 638.87 430.64C639.18 428.14 641.54 426.29 643.97 426.66C646.48 426.97 648.26 429.26 647.95 431.76C645.64 450.31 640.43 462.42 632.02 468.79C627.45 472.26 621.9 474 615.47 474V474.02Z" fill="#1D1D1B"/>
<path d="M511.49 528.78L610.16 535.77C610.16 535.77 598.81 572.44 559.51 568.08C520.22 563.71 511.48 528.79 511.48 528.79L511.49 528.78Z" fill="#1D1D1B"/>
<path d="M565.88 573.01C563.68 573.01 561.39 572.88 559.01 572.63C517.03 567.96 507.14 530.28 507.04 529.89C506.69 528.47 507.04 526.96 507.98 525.84C508.92 524.71 510.38 524.14 511.81 524.21L610.48 531.2C611.87 531.3 613.14 532.03 613.94 533.18C614.73 534.33 614.94 535.78 614.53 537.11C614.41 537.49 602.97 573 565.88 573V573.01ZM518.23 533.85C522.56 543.33 533.94 560.62 560.03 563.53C586.56 566.41 598.88 549.13 603.5 539.9L518.23 533.86V533.85Z" fill="#1D1D1B"/>
<path d="M478.34 794.27C476.13 794.27 473.89 793.87 471.63 793.07C464.09 790.42 458.91 785.91 456.21 779.71C453.15 772.66 454.21 765.13 455.41 760.51C430.31 749.73 418.22 737.78 418.47 724.04C418.98 697.01 470.01 677.82 475.83 675.72C478.22 674.89 480.83 676.1 481.69 678.47C482.55 680.85 481.31 683.47 478.94 684.33C464.77 689.44 427.94 706.59 427.62 724.22C427.44 734.13 439.6 744.31 462.79 753.66C463.93 754.12 464.84 755.04 465.3 756.17C465.77 757.31 465.76 758.6 465.27 759.73C465.23 759.82 461.43 768.81 464.62 776.11C466.29 779.93 469.57 782.64 474.66 784.44C477.69 785.51 480.41 785.31 483.18 783.81C492.66 778.72 499.38 760.52 501.61 752.42C500.33 749.27 495.03 739.32 477.58 733.62C464.64 729.39 465.12 722.04 465.92 719.08C468.62 709.15 487.5 701.16 497.89 703.39C503.91 704.71 514.63 708.37 518.84 718.01C521.93 725.11 520.65 733.54 515.04 743.07C513.75 745.25 510.95 745.96 508.77 744.69C506.6 743.41 505.86 740.6 507.15 738.42C511.19 731.56 512.3 725.92 510.44 721.67C507.76 715.53 499.39 713.09 495.91 712.33C489.38 710.86 475.87 717.34 474.74 721.49C474.61 721.99 476.13 723.52 480.41 724.91C505.98 733.26 510.62 750.39 510.81 751.11C511 751.85 511 752.62 510.81 753.35C510.5 754.57 503.12 783.47 487.5 791.87C484.51 793.47 481.45 794.27 478.31 794.27H478.34Z" fill="#1D1D1B"/>
<path d="M707.02 791.95C704.57 791.95 702.08 791.12 699.75 789.43C690.53 782.71 672.84 749.77 678.14 737.6C679.91 733.53 683.9 731.66 688.71 732.6C697.85 734.39 706.34 729.62 707.47 726.39C707.8 725.45 706.92 724.43 704.85 723.34C702.61 722.17 701.75 719.4 702.93 717.16C704.1 714.9 706.89 714.07 709.11 715.24C718.5 720.17 716.84 727.33 716.11 729.42C713.04 738.14 699.17 743.95 686.98 741.59C683.78 745.84 696.25 775.54 705.14 782.02C706.06 782.71 707.48 783.68 709.6 781.1C712.72 777.27 713.72 769.59 710.51 766.66C708.73 765.04 707.86 762.78 708.03 760.29C708.9 748.67 738.31 727.65 751.67 718.66C756.26 712.37 760.8 703.92 757.57 698.14C751.54 687.33 721.37 685.79 703.83 687.37C701.09 687.53 699.09 685.73 698.86 683.22C698.64 680.7 700.5 678.47 703.01 678.25C708.29 677.77 754.69 674.19 765.56 693.67C770.16 701.91 767.8 712.37 758.54 724.76C758.23 725.18 757.85 725.54 757.42 725.83C736.68 739.7 718.76 755.2 717.25 760.47C723.82 767.22 722.47 779.79 716.69 786.88C713.96 790.22 710.53 791.94 707.01 791.94L707.02 791.95Z" fill="#1D1D1B"/>
<path d="M544.22 614.1C515.87 614.1 458.37 609.27 417.91 573.84C390.82 550.11 376.34 516.78 374.87 474.77C373.6 438.19 385.07 407.96 408.95 384.91C469.97 326.05 589.89 333.78 594.97 334.14C597.98 333.98 681.96 329.81 732.06 378.37C756.62 402.17 768.57 434.55 767.57 474.6C766.67 511.18 753.63 541.33 728.83 564.22C670.75 617.83 568.78 613.87 560.91 613.47C559.24 613.62 553.18 614.1 544.21 614.1H544.22ZM578.6 342.86C543.55 342.86 460.62 347.75 415.29 391.51C393.36 412.68 382.84 440.58 384.02 474.45C385.39 513.82 398.8 544.93 423.9 566.92C475.33 611.99 559.52 604.42 560.37 604.32C560.62 604.3 560.85 604.28 561.07 604.32C562.14 604.38 666.33 609.47 722.65 557.47C745.55 536.33 757.58 508.37 758.42 474.36C759.35 436.98 748.33 406.89 725.69 384.94C678.44 339.14 595.74 343.21 594.91 343.27C594.52 343.25 588.44 342.87 578.6 342.87V342.86Z" fill="#1D1D1B"/>
<path d="M691.52 666.3C689.76 666.3 688.08 665.28 687.33 663.56C686.32 661.24 687.37 658.55 689.69 657.54C840.38 591.56 899.58 520.68 887.62 420.53C875.24 316.94 762.82 260.66 708.8 233.62L700.59 229.5C659.09 208.48 623.67 174.86 611.37 162.48C602.43 173.94 575.61 188.04 529.11 211.85C424.16 265.58 248.5 355.53 256.81 474.3C268.64 643.26 475.49 657.05 477.57 657.17C480.09 657.31 482.02 659.48 481.88 662C481.75 664.51 479.95 666.69 477.05 666.31C474.88 666.18 260.07 651.98 247.67 474.95C238.94 350.14 417.97 258.48 524.94 203.71C564.2 183.61 604.8 162.82 605.6 154.24C605.77 152.44 606.98 150.91 608.68 150.32C610.39 149.75 612.27 150.21 613.51 151.54C613.92 151.99 655.69 196.51 704.72 221.34L712.89 225.44C768.35 253.2 883.74 310.97 896.7 419.45C909.23 524.33 848.41 598.04 693.35 665.93C692.76 666.19 692.13 666.31 691.52 666.31V666.3Z" fill="#1D1D1B"/>
<path d="M978.6 300.75C976.84 300.75 975.21 299.74 974.45 298.11C973.62 296.32 974.02 294.19 975.46 292.84C993.52 275.84 994.04 257.21 993.34 249.58L969.03 249.54C945.31 249.54 926 230.24 926 206.51V137.03C926 113.3 945.31 94 969.04 94H1129.15C1152.87 94 1172.18 113.3 1172.18 137.03V206.51C1172.18 230.24 1152.87 249.54 1129.15 249.54L1047.68 250.09C1024.07 294.83 981 300.49 979.15 300.71C978.97 300.73 978.78 300.74 978.6 300.74V300.75ZM969.04 103.15C950.36 103.15 935.15 118.35 935.15 137.03V206.51C935.15 225.19 950.36 240.39 969.04 240.39L997.3 240.43C999.41 240.43 1001.24 241.88 1001.74 243.93C1001.99 244.97 1006.79 266.03 991.79 287.86C1005.82 282.62 1027.4 270.53 1040.78 243.51C1041.55 241.96 1043.12 240.98 1044.86 240.96L1129.14 240.39C1147.85 240.39 1163.05 225.19 1163.05 206.51V137.03C1163.05 118.35 1147.85 103.15 1129.17 103.15H969.06H969.04Z" fill="#1D1D1B"/>
<path d="M1053.13 214.63C1056.3 214.63 1058.87 212.06 1058.87 208.89C1058.87 205.72 1056.3 203.15 1053.13 203.15C1049.96 203.15 1047.39 205.72 1047.39 208.89C1047.39 212.06 1049.96 214.63 1053.13 214.63Z" fill="#1D1D1B"/>
<path d="M1053.12 217.87C1048.17 217.87 1044.15 213.84 1044.15 208.89C1044.15 203.94 1048.17 199.92 1053.12 199.92C1058.07 199.92 1062.1 203.95 1062.1 208.89C1062.1 213.83 1058.07 217.87 1053.12 217.87ZM1053.12 206.38C1051.74 206.38 1050.62 207.5 1050.62 208.88C1050.62 210.26 1051.75 211.39 1053.12 211.39C1054.49 211.39 1055.63 210.26 1055.63 208.88C1055.63 207.5 1054.5 206.38 1053.12 206.38Z" fill="#1D1D1B"/>
<path d="M1088.9 214.63C1092.07 214.63 1094.64 212.06 1094.64 208.89C1094.64 205.72 1092.07 203.15 1088.9 203.15C1085.73 203.15 1083.16 205.72 1083.16 208.89C1083.16 212.06 1085.73 214.63 1088.9 214.63Z" fill="#1D1D1B"/>
<path d="M1088.9 217.87C1083.95 217.87 1079.93 213.84 1079.93 208.89C1079.93 203.94 1083.95 199.92 1088.9 199.92C1093.85 199.92 1097.88 203.95 1097.88 208.89C1097.88 213.83 1093.85 217.87 1088.9 217.87ZM1088.9 206.38C1087.52 206.38 1086.4 207.5 1086.4 208.88C1086.4 210.26 1087.53 211.39 1088.9 211.39C1090.27 211.39 1091.41 210.26 1091.41 208.88C1091.41 207.5 1090.28 206.38 1088.9 206.38Z" fill="#1D1D1B"/>
<path d="M1016.97 214.71C1020.14 214.71 1022.71 212.14 1022.71 208.97C1022.71 205.8 1020.14 203.23 1016.97 203.23C1013.8 203.23 1011.23 205.8 1011.23 208.97C1011.23 212.14 1013.8 214.71 1016.97 214.71Z" fill="#1D1D1B"/>
<path d="M1016.97 217.95C1012.02 217.95 1008 213.92 1008 208.97C1008 204.02 1012.02 200 1016.97 200C1021.92 200 1025.94 204.03 1025.94 208.97C1025.94 213.91 1021.92 217.95 1016.97 217.95ZM1016.97 206.46C1015.59 206.46 1014.47 207.58 1014.47 208.96C1014.47 210.34 1015.6 211.47 1016.97 211.47C1018.34 211.47 1019.47 210.34 1019.47 208.96C1019.47 207.58 1018.34 206.46 1016.97 206.46Z" fill="#1D1D1B"/>
</svg>
