<?xml version="1.0" encoding="UTF-8"?>
<svg id="Calque_1" data-name="Calque 1" xmlns="http://www.w3.org/2000/svg" version="1.1" viewBox="0 0 1280 1024">
  <defs>
    <style>
      .cls-1 {
        fill: #1d1d1b;
        stroke-width: 0px;
      }
    </style>
  </defs>
  <path class="cls-1" d="M562.58,641.8c-52.36,0-93.13-11.9-121.61-35.57-30.25-25.14-47.36-63.99-50.84-115.5-2.34-34.7,7.4-64.71,28.98-89.2,52.54-59.61,156.04-66.33,160.42-66.58,2.51-.17,4.69,1.77,4.84,4.3.15,2.52-1.78,4.69-4.3,4.84-1.04.06-104.12,6.78-154.11,63.52-19.89,22.58-28.87,50.34-26.69,82.51,3.31,48.9,19.31,85.61,47.56,109.08,34.72,28.85,89.57,39.12,163.09,30.52,2.52-.35,4.78,1.5,5.09,4.01.29,2.51-1.51,4.78-4.01,5.08-17.09,2-33.23,3-48.4,3Z"/>
  <path class="cls-1" d="M687.07,621.15c-2.2,0-4.15-1.6-4.51-3.84-.41-2.49,1.29-4.84,3.78-5.25,19.98-3.24,118.61-25.94,98.78-155.12-4.59-29.95-18.65-53.33-41.76-69.5-61.46-42.99-167.49-22.4-168.57-22.2-2.39.51-4.88-1.1-5.38-3.59-.5-2.48,1.11-4.89,3.59-5.39,4.5-.9,110.99-21.54,175.61,23.67,25.24,17.66,40.57,43.1,45.56,75.62,10.25,66.75-11.45,150.15-106.36,165.54-.25.04-.49.06-.74.06Z"/>
  <g>
    <path class="cls-1" d="M547.99,558.24l82.71,5.86s-9.52,30.74-42.46,27.08-40.26-32.94-40.26-32.94Z"/>
    <path class="cls-1" d="M593.58,595.31c-1.84,0-3.76-.1-5.76-.33-35.18-3.91-43.48-35.5-43.56-35.82-.3-1.19,0-2.45.78-3.4.8-.94,2.01-1.48,3.21-1.36l82.72,5.85c1.17.08,2.23.69,2.9,1.66.66.97.85,2.19.5,3.3-.1.32-9.7,30.09-40.79,30.09ZM553.64,562.48c3.63,7.96,13.17,22.45,35.03,24.88,22.23,2.44,32.57-12.08,36.45-19.82l-71.48-5.06Z"/>
  </g>
  <path class="cls-1" d="M517.5,886.39c-33.12,0-66.57-1.71-87.08-2.76-5.34-.27-9.66-.5-12.67-.62l-3.92-.12c-19.1-.51-58.84-1.59-58.09-48.27.66-41.44,57.28-44.26,84.48-45.62,5.55-.28,10.34-.52,12.83-.98,25.08-4.66,29.13-66.34,28.59-95.07-71.29,3.09-126.17-13.35-163.33-48.92-41.21-39.44-61.62-103.5-60.66-190.39,1.55-140.16,120.31-182.3,215.72-216.16,15.82-5.61,30.76-10.91,44.35-16.39,92.71-37.37,159.17-92.61,159.83-93.16,1.68-1.41,4.13-1.43,5.85-.03,1.7,1.39,2.16,3.81,1.11,5.74-.2.36-19.58,36.23-7.87,60.35,5.43,11.19,17.03,18.33,34.48,21.25,169.46,28.34,273.22,54.74,271.4,232.76-1.12,109.34-77.63,186.01-211.65,214.3,27.75,1.6,61.55,3.6,73.36,4.51,16.53,1.28,71.37,2.19,83.13-39.39,11.71-41.33,18.86-66.6,40.29-66.6.43,0,.86.01,1.29.03,11.79.54,20.89,4.73,26.33,12.14,5.9,8.04,7.03,19.15,3.36,33.03-5.73,21.66-14.25,50.84-17.74,62.7,16.69,2.32,41.04,12.01,41.72,37.04.29,10.94-2.93,20.09-9.31,26.48-1.75,1.75-3.74,3.29-5.92,4.59,9.72,3.81,11.95,9.65,11.94,14.25-.02,5.78-2.68,9.49-6.57,11.88,2.82,1.81,4.75,4.3,5.03,7.71.33,3.87-.88,7.29-3.5,9.87-.89.88-1.93,1.64-3.07,2.28.95.68,1.8,1.45,2.53,2.29,5.53,6.37,6.8,13.93,3.58,21.3-5.61,12.84-23.29,21.9-43.99,22.55-17.34.58-39.43-.88-55.84-16.95-15.33-15.02-22.96-39.64-23.24-75.18-19.3,1.6-92.2,6.42-193.39-1.87,3.52,20.99,10.75,48.47,18.07,53.17,2.91,1.87,12.91,2.71,22.57,3.53,28.88,2.44,72.51,6.14,73.09,42.42.76,46.68-38.99,47.76-58.09,48.27l-3.91.12c-3,.12-7.32.34-12.66.61-28,1.44-80.11,4.09-122.59,1.96l-.94-.04c-6.61-.28-24.35-1.05-31.14-20.83-6.66,20.33-24.67,21.1-31.34,21.39l-.94.04c-11.35.57-23.4.8-35.5.8ZM486.08,683.58c1.14,0,2.23.42,3.07,1.19.91.82,1.45,1.98,1.5,3.2.43,10.4,3.11,101.81-35.93,109.06-3.08.57-7.91.81-14.03,1.12-26.3,1.31-75.26,3.75-75.78,36.62-.56,34.73,23.98,38.3,49.18,38.98l4.02.13c3.04.12,7.39.34,12.77.62,27.85,1.42,79.66,4.07,121.65,1.96l1.01-.04c8.37-.36,23.95-1.03,25.03-27.34,1.3-31.38,1.88-63.32,1.89-63.65,0-.69.18-1.37.5-1.99.95-1.87,3.14-3.15,5.25-2.67,2.05.47,3.66,1.99,3.69,4.09,0,.32.59,32.27,1.89,63.65,1.08,26.31,16.66,26.98,25.03,27.34l1.01.04c42,2.12,93.81-.54,121.66-1.96,5.38-.27,9.73-.5,12.76-.62l4.02-.13c25.19-.68,49.75-4.25,49.18-38.97-.41-25.86-30.85-30.58-64.71-33.44-12.73-1.08-21.93-1.85-26.75-4.96-14.39-9.26-21.74-55.99-23.06-65.27-.2-1.38.25-2.78,1.21-3.79.96-1.02,2.3-1.57,3.72-1.42,120.33,10.33,201.71,1.99,202.52,1.92,1.32-.13,2.6.29,3.57,1.17.97.88,1.51,2.13,1.49,3.43-.38,35.15,6.51,59.91,20.49,73.6,13.85,13.57,32.54,14.83,49.15,14.34,18.92-.6,32.38-9.04,35.89-17.07,1.77-4.06,1.06-7.97-2.11-11.63-2.38-2.74-9.19-4.41-15.01-5.06-1.62-.06-3.19-.18-4.68-.32-2.45-.23-4.27-2.36-4.13-4.82.14-2.45,1.98-4.41,4.66-4.31.55.01,2.33.07,4.76.32,7.49.26,13.27-.76,15.42-2.89.49-.49.93-1.14.81-2.6-.14-1.77-9.19-4.17-20.59-3.96l-2.3.07s-.13,0-.21,0c-2.43,0-4.46-1.91-4.57-4.37-.12-2.52,1.83-4.66,4.35-4.78h0c.78-.04,1.73-.07,2.82-.08l.82-.02c10.24-.24,21.15-1.01,21.17-7.24.02-5.95-15.2-8.62-24.28-8.86-.42,0-.84,0-1.26-.02-2.5-.07-4.49-2.14-4.45-4.64.04-2.5,2.07-4.51,4.58-4.51h0c.06,0,.4,0,.97.02,9.23-.16,16.31-2.5,21.1-7.27,4.63-4.63,6.87-11.28,6.63-19.76-.72-26.62-37.18-28.61-38.73-28.68-1.4-.07-2.71-.77-3.52-1.92-.81-1.15-1.06-2.61-.66-3.96.13-.4,11.96-40.23,19.25-67.77,2.93-11.07,2.3-19.57-1.89-25.27-4.73-6.44-13.14-8.13-19.36-8.41-.26-.01-.51-.02-.75-.02-13.35,0-19.37,16.75-31.6,59.94-13.66,48.27-74.36,47.43-92.64,46.03-21.07-1.62-112.81-6.74-113.74-6.8-2.36-.13-4.23-2.04-4.32-4.4-.08-2.36,1.64-4.4,3.99-4.71,153.82-20.01,242.72-97.32,243.9-212.12,1.74-170.57-99.09-196.1-263.75-223.64-20.56-3.44-34.43-12.29-41.23-26.31-8.25-17.04-4-37.81.9-52.03-24.58,18.33-79.23,55.87-148.15,83.65-13.77,5.55-28.79,10.88-44.7,16.53-92.74,32.91-208.16,73.86-209.64,207.63-.93,84.26,18.53,146.06,57.83,183.68,36.07,34.52,90.23,50.03,161.19,46.17.08,0,.17,0,.25,0Z"/>
  <path class="cls-1" d="M625.48,495.33c-1.93,0-3.93-.16-6.02-.47-13.45-2.03-20.69-11.36-24.27-21.7-2.66,6.33-6.11,11.08-10.41,14.33-5.94,4.51-13.54,6.09-22.56,4.74-24.46-3.69-28.38-31.49-27.05-45.68.24-2.52,2.49-4.32,4.98-4.13,2.52.23,4.37,2.46,4.14,4.98-.13,1.32-2.71,32.45,19.29,35.77,6.57.98,11.71.03,15.68-2.98,6.25-4.74,10.41-15.13,12.37-30.87.21-1.73,1.39-3.2,3.05-3.76,1.47-.5,3.5-.37,4.72.59,1.22.96,2.28,2.34,2.14,3.88-.13,1.32-2.71,32.45,19.29,35.76,6.61,1,11.72.02,15.67-2.98,6.26-4.74,10.42-15.13,12.38-30.87.3-2.51,2.63-4.33,5.1-3.98,2.51.31,4.29,2.6,3.98,5.1-2.31,18.54-7.52,30.66-15.93,37.03-4.57,3.46-10.12,5.21-16.55,5.21Z"/>
</svg>