<?xml version="1.0" encoding="UTF-8"?>
<svg id="Calque_1" data-name="Calque 1" xmlns="http://www.w3.org/2000/svg" version="1.1" viewBox="0 0 1280 1024">
  <defs>
    <style>
      .cls-1 {
        fill: #1d1d1b;
        stroke-width: 0px;
      }
    </style>
  </defs>
  <path class="cls-1" d="M532.61,916c-33.07,0-66.5-1.71-86.99-2.75-5.39-.28-9.75-.5-12.78-.62l-3.92-.13c-19.09-.52-58.84-1.6-58.08-48.27.66-41.24,73.85-44.19,109.03-45.6,7.08-.29,13.19-.54,15.73-1,26.56-4.93,29.54-73.62,28.45-99.68-.1-2.52,1.86-4.66,4.39-4.76,2.46.06,4.66,1.86,4.76,4.39.43,10.4,3.11,101.81-35.93,109.05-3.18.6-8.99.83-17.04,1.15-32.37,1.31-99.72,4-100.24,36.6-.56,34.72,23.98,38.29,49.17,38.97l4.04.13c3.05.13,7.45.35,12.88.63,27.83,1.42,79.6,4.08,121.53,1.96l1.02-.05c8.37-.36,23.94-1.04,25.02-27.34,1.3-31.38,1.88-63.32,1.89-63.64,0-.7.18-1.38.5-1.99.95-1.88,3.15-3.2,5.25-2.66,2.05.46,3.66,1.99,3.69,4.09,0,.31.59,32.26,1.89,63.64,1.08,26.31,16.65,26.99,25.02,27.34l1.02.05c41.95,2.09,93.72-.55,121.56-1.96,5.43-.28,9.81-.5,12.86-.63l4.03-.13c25.19-.68,49.74-4.25,49.17-38.97-.45-27.77-51.94-31.16-86.02-33.4-18.4-1.21-28.22-1.98-32.9-4.99-14.39-9.27-21.74-56-23.06-65.28-.36-2.49,1.39-4.82,3.89-5.18,2.44-.29,4.81,1.38,5.18,3.89,3.06,21.35,10.95,53.72,18.95,58.86,2.91,1.88,16.54,2.77,28.55,3.56,37.43,2.47,93.99,6.19,94.57,42.4.76,46.67-38.98,47.75-58.08,48.27l-3.92.13c-3.03.12-7.38.34-12.76.62-28,1.43-80.07,4.09-122.49,1.95l-.96-.04c-6.6-.29-24.33-1.05-31.13-20.83-6.66,20.33-24.66,21.1-31.32,21.39l-.96.04c-11.34.57-23.38.8-35.47.8Z"/>
  <path class="cls-1" d="M615.47,474.02c-1.92,0-3.93-.16-6.02-.47-13.45-2.03-20.69-11.36-24.26-21.7-2.66,6.34-6.12,11.08-10.42,14.34-6.01,4.57-13.41,6.14-22.56,4.74-24.45-3.69-28.38-31.49-27.05-45.68.24-2.51,2.48-4.41,4.98-4.12,2.51.23,4.36,2.46,4.14,4.97-.13,1.32-2.7,32.46,19.29,35.78,6.61.99,11.72.03,15.68-2.99,6.25-4.74,10.41-15.12,12.37-30.87.21-1.73,1.39-3.19,3.05-3.76,1.47-.5,3.49-.37,4.72.59,1.22.96,2.28,2.33,2.14,3.88-.13,1.32-2.7,32.45,19.3,35.77,6.6,1,11.71.03,15.66-2.99,6.26-4.74,10.42-15.12,12.38-30.87.31-2.5,2.67-4.35,5.1-3.98,2.51.31,4.29,2.6,3.98,5.1-2.31,18.55-7.52,30.66-15.93,37.03-4.57,3.47-10.12,5.21-16.55,5.21Z"/>
  <g>
    <path class="cls-1" d="M511.49,528.78l98.67,6.99s-11.35,36.67-50.65,32.31c-39.29-4.37-48.03-39.29-48.03-39.29Z"/>
    <path class="cls-1" d="M565.88,573.01c-2.2,0-4.49-.13-6.87-.38-41.98-4.67-51.87-42.35-51.97-42.74-.35-1.42,0-2.93.94-4.05.94-1.13,2.4-1.7,3.83-1.63l98.67,6.99c1.39.1,2.66.83,3.46,1.98.79,1.15,1,2.6.59,3.93-.12.38-11.56,35.89-48.65,35.89ZM518.23,533.85c4.33,9.48,15.71,26.77,41.8,29.68,26.53,2.88,38.85-14.4,43.47-23.63l-85.27-6.04Z"/>
  </g>
  <path class="cls-1" d="M478.34,794.27c-2.21,0-4.45-.4-6.71-1.2-7.54-2.65-12.72-7.16-15.42-13.36-3.06-7.05-2-14.58-.8-19.2-25.1-10.78-37.19-22.73-36.94-36.47.51-27.03,51.54-46.22,57.36-48.32,2.39-.83,5,.38,5.86,2.75.86,2.38-.38,5-2.75,5.86-14.17,5.11-51,22.26-51.32,39.89-.18,9.91,11.98,20.09,35.17,29.44,1.14.46,2.05,1.38,2.51,2.51.47,1.14.46,2.43-.03,3.56-.04.09-3.84,9.08-.65,16.38,1.67,3.82,4.95,6.53,10.04,8.33,3.03,1.07,5.75.87,8.52-.63,9.48-5.09,16.2-23.29,18.43-31.39-1.28-3.15-6.58-13.1-24.03-18.8-12.94-4.23-12.46-11.58-11.66-14.54,2.7-9.93,21.58-17.92,31.97-15.69,6.02,1.32,16.74,4.98,20.95,14.62,3.09,7.1,1.81,15.53-3.8,25.06-1.29,2.18-4.09,2.89-6.27,1.62-2.17-1.28-2.91-4.09-1.62-6.27,4.04-6.86,5.15-12.5,3.29-16.75-2.68-6.14-11.05-8.58-14.53-9.34-6.53-1.47-20.04,5.01-21.17,9.16-.13.5,1.39,2.03,5.67,3.42,25.57,8.35,30.21,25.48,30.4,26.2.19.74.19,1.51,0,2.24-.31,1.22-7.69,30.12-23.31,38.52-2.99,1.6-6.05,2.4-9.19,2.4Z"/>
  <path class="cls-1" d="M707.02,791.95c-2.45,0-4.94-.83-7.27-2.52-9.22-6.72-26.91-39.66-21.61-51.83,1.77-4.07,5.76-5.94,10.57-5,9.14,1.79,17.63-2.98,18.76-6.21.33-.94-.55-1.96-2.62-3.05-2.24-1.17-3.1-3.94-1.92-6.18,1.17-2.26,3.96-3.09,6.18-1.92,9.39,4.93,7.73,12.09,7,14.18-3.07,8.72-16.94,14.53-29.13,12.17-3.2,4.25,9.27,33.95,18.16,40.43.92.69,2.34,1.66,4.46-.92,3.12-3.83,4.12-11.51.91-14.44-1.78-1.62-2.65-3.88-2.48-6.37.87-11.62,30.28-32.64,43.64-41.63,4.59-6.29,9.13-14.74,5.9-20.52-6.03-10.81-36.2-12.35-53.74-10.77-2.74.16-4.74-1.64-4.97-4.15-.22-2.52,1.64-4.75,4.15-4.97,5.28-.48,51.68-4.06,62.55,15.42,4.6,8.24,2.24,18.7-7.02,31.09-.31.42-.69.78-1.12,1.07-20.74,13.87-38.66,29.37-40.17,34.64,6.57,6.75,5.22,19.32-.56,26.41-2.73,3.34-6.16,5.06-9.68,5.06Z"/>
  <path class="cls-1" d="M544.22,614.1c-28.35,0-85.85-4.83-126.31-40.26-27.09-23.73-41.57-57.06-43.04-99.07-1.27-36.58,10.2-66.81,34.08-89.86,61.02-58.86,180.94-51.13,186.02-50.77,3.01-.16,86.99-4.33,137.09,44.23,24.56,23.8,36.51,56.18,35.51,96.23-.9,36.58-13.94,66.73-38.74,89.62-58.08,53.61-160.05,49.65-167.92,49.25-1.67.15-7.73.63-16.7.63ZM578.6,342.86c-35.05,0-117.98,4.89-163.31,48.65-21.93,21.17-32.45,49.07-31.27,82.94,1.37,39.37,14.78,70.48,39.88,92.47,51.43,45.07,135.62,37.5,136.47,37.4.25-.02.48-.04.7,0,1.07.06,105.26,5.15,161.58-46.85,22.9-21.14,34.93-49.1,35.77-83.11.93-37.38-10.09-67.47-32.73-89.42-47.25-45.8-129.95-41.73-130.78-41.67-.39-.02-6.47-.4-16.31-.4Z"/>
  <path class="cls-1" d="M691.52,666.3c-1.76,0-3.44-1.02-4.19-2.74-1.01-2.32.04-5.01,2.36-6.02,150.69-65.98,209.89-136.86,197.93-237.01-12.38-103.59-124.8-159.87-178.82-186.91l-8.21-4.12c-41.5-21.02-76.92-54.64-89.22-67.02-8.94,11.46-35.76,25.56-82.26,49.37-104.95,53.73-280.61,143.68-272.3,262.45,11.83,168.96,218.68,182.75,220.76,182.87,2.52.14,4.45,2.31,4.31,4.83-.13,2.51-1.93,4.69-4.83,4.31-2.17-.13-216.98-14.33-229.38-191.36-8.73-124.81,170.3-216.47,277.27-271.24,39.26-20.1,79.86-40.89,80.66-49.47.17-1.8,1.38-3.33,3.08-3.92,1.71-.57,3.59-.11,4.83,1.22.41.45,42.18,44.97,91.21,69.8l8.17,4.1c55.46,27.76,170.85,85.53,183.81,194.01,12.53,104.88-48.29,178.59-203.35,246.48-.59.26-1.22.38-1.83.38Z"/>
</svg>