<?xml version="1.0" encoding="UTF-8"?>
<svg id="Calque_1" data-name="Calque 1" xmlns="http://www.w3.org/2000/svg" version="1.1" viewBox="0 0 1280 1024">
  <defs>
    <style>
      .cls-1 {
        fill: #1d1d1b;
        stroke-width: 0px;
      }
    </style>
  </defs>
  <path class="cls-1" d="M552.65,897.61c-33.84,0-68.35-1.76-87.55-2.74-5.29-.27-9.56-.49-12.56-.61l-3.92-.13c-19.09-.52-58.84-1.6-58.08-48.27.67-41.43,57.27-44.27,84.47-45.62,5.55-.28,10.35-.52,12.83-.97,26.56-4.93,29.54-73.62,28.45-99.68-.1-2.52,1.86-4.66,4.39-4.76,2.57-.13,4.66,1.86,4.76,4.39.43,10.4,3.11,101.81-35.93,109.05-3.08.58-7.92.82-14.04,1.13-26.3,1.31-75.24,3.76-75.78,36.62-.56,34.72,23.98,38.29,49.17,38.97l4.04.13c3.01.13,7.32.35,12.65.62,25.88,1.33,79.74,4.09,121.77,1.97l1-.04c8.37-.36,23.95-1.03,25.03-27.34,1.3-31.38,1.89-63.33,1.9-63.65,0-.68.17-1.34.47-1.94.93-1.9,3.15-3.18,5.24-2.73,2.06.46,3.68,1.98,3.72,4.1,0,.31.6,32.26,1.9,63.64,1.07,26.31,16.64,26.99,25.01,27.34l1.02.05c41.93,2.11,93.72-.53,121.52-1.96,5.44-.28,9.84-.5,12.91-.63l4.03-.13c25.19-.68,49.73-4.25,49.16-38.97-.41-25.86-30.85-30.57-64.72-33.44-12.73-1.08-21.92-1.86-26.75-4.95-14.39-9.25-21.74-56-23.06-65.28-.36-2.49,1.39-4.82,3.89-5.18,2.49-.34,4.82,1.38,5.18,3.89,3.06,21.35,10.95,53.72,18.95,58.86,2.91,1.87,12.9,2.72,22.57,3.54,28.87,2.44,72.51,6.13,73.09,42.42.76,46.67-38.97,47.75-58.07,48.27l-3.92.13c-3.04.12-7.41.34-12.81.62-27.98,1.43-80.08,4.09-122.45,1.95l-.96-.04c-6.6-.29-24.33-1.05-31.13-20.83-6.65,20.34-24.67,21.11-31.34,21.4l-.93.04c-11.16.56-23.12.79-35.16.79Z"/>
  <path class="cls-1" d="M699.29,532.94c-1.93,0-3.94-.16-6.02-.47-13.44-2.03-20.68-11.35-24.26-21.69-2.66,6.33-6.11,11.08-10.4,14.32-6.04,4.58-13.41,6.12-22.57,4.75-24.45-3.69-28.39-31.49-27.06-45.68.24-2.51,2.49-4.41,4.98-4.12,2.51.23,4.36,2.46,4.14,4.97-.13,1.32-2.7,32.46,19.3,35.78,6.58,1,11.72,0,15.68-2.99,6.26-4.75,10.41-15.13,12.37-30.87.21-1.73,1.39-3.18,3.04-3.76,1.44-.5,3.48-.38,4.72.58,1.22.97,2.28,2.34,2.14,3.89-.13,1.32-2.7,32.45,19.29,35.77,6.61.99,11.72,0,15.69-2.99,6.25-4.74,10.41-15.12,12.37-30.87.3-2.51,2.62-4.33,5.1-3.98,2.51.31,4.29,2.6,3.98,5.1-2.31,18.54-7.52,30.66-15.93,37.03-4.57,3.47-10.12,5.21-16.55,5.21Z"/>
  <g>
    <path class="cls-1" d="M604.21,569.1l98.67,6.99s-11.35,36.67-50.65,32.31c-39.29-4.37-48.03-39.29-48.03-39.29Z"/>
    <path class="cls-1" d="M658.6,613.33c-2.2,0-4.49-.13-6.87-.38-41.97-4.67-51.86-42.35-51.96-42.74-.35-1.42,0-2.93.94-4.05.94-1.13,2.38-1.71,3.83-1.63l98.67,6.99c1.39.1,2.66.83,3.46,1.98.79,1.15,1,2.6.59,3.93-.12.38-11.57,35.89-48.65,35.89ZM610.95,574.17c4.33,9.48,15.71,26.77,41.79,29.68,26.41,2.93,38.78-14.39,43.45-23.64l-85.24-6.03Z"/>
  </g>
  <path class="cls-1" d="M615.51,658.87c-62.47,0-104.21-27.22-124.54-81.42-9.31-24.81-8.14-49.56,3.46-73.57,24.79-51.31,88.37-83.37,122.03-94.23,69.01-22.26,162.49-23.2,198.9,47.35,30.22,58.56,12.85,111.08-50.24,151.91-2.1,1.34-4.95.79-6.33-1.36-1.37-2.12-.77-4.95,1.36-6.33,59.36-38.41,75.2-85.52,47.07-140.02-33.78-65.47-122.36-63.98-187.96-42.84-41.85,13.5-96.2,47.27-116.6,89.51-10.47,21.66-11.52,43.99-3.14,66.36,26.74,71.29,91.09,91.96,196.64,63.21,2.54-.64,4.96.79,5.62,3.21.66,2.44-.78,4.96-3.21,5.62-30.86,8.4-58.57,12.59-83.08,12.59Z"/>
  <path class="cls-1" d="M379.11,770.38c-1.31,0-2.62-.56-3.52-1.65-1.62-1.94-1.35-4.83.6-6.44.75-.63,75.41-62.63,106.82-85.67,2.01-1.48,4.91-1.07,6.4.98,1.49,2.04,1.05,4.91-.98,6.4-31.19,22.87-105.64,84.71-106.39,85.33-.85.71-1.89,1.05-2.92,1.05Z"/>
  <path class="cls-1" d="M297.84,785.16c-1.6,0-3.16-.85-4-2.35-1.22-2.22-.43-5,1.78-6.23,95.07-52.81,131.48-95.27,139.12-162.23.29-2.52,2.59-4.3,5.07-4.03,2.51.29,4.32,2.56,4.03,5.07-7.94,69.53-46.9,115.38-143.76,169.2-.71.38-1.47.57-2.23.57Z"/>
  <path class="cls-1" d="M260.9,738.71c-1.71,0-3.35-.97-4.14-2.62-1.08-2.29-.1-5.01,2.18-6.1.38-.18,38.04-18.3,88.51-66.71,35.33-33.9,40.64-53.07,38.87-63.18-1.12-6.42-5.59-11.41-13.28-14.83-2.31-1.03-3.35-3.74-2.32-6.04,1.04-2.32,3.73-3.33,6.04-2.32,10.5,4.68,16.93,12.15,18.58,21.61,3.13,17.9-10.85,41.91-41.56,71.36-51.66,49.57-89.35,67.65-90.93,68.39-.63.29-1.3.44-1.96.44Z"/>
  <path class="cls-1" d="M220.79,653.22c-1.6,0-3.16-.85-4-2.35-1.23-2.21-.44-5,1.77-6.22,144.82-80.69,148.03-114.28,137.18-149.83-8.5-27.84-69.84-20.13-92.75-14.82-2.48.58-4.93-.97-5.5-3.42-.57-2.47.97-4.93,3.42-5.5,3.7-.85,90.86-20.55,103.58,21.06,12.08,39.55,9.32,76.48-141.49,160.5-.71.39-1.47.58-2.23.58Z"/>
  <path class="cls-1" d="M226.05,465.33c-2.17,0-4.09-1.56-4.5-3.77-.45-2.49,1.21-4.86,3.7-5.31,78.95-14.17,134.12-30.73,155.33-46.65,12.17-9.13,18.89-19.99,18.41-29.79-.46-9.37-7.23-18.11-20.15-25.97-34.34-20.89-137.11-48.82-138.15-49.1-2.44-.66-3.88-3.17-3.22-5.61.65-2.43,3.15-3.85,5.61-3.22,4.27,1.15,105.07,28.55,140.51,50.12,15.67,9.53,23.93,20.75,24.54,33.34.63,12.89-7.41,26.58-22.06,37.56-22.33,16.75-78.88,33.91-159.21,48.33-.27.04-.55.07-.81.07Z"/>
  <path class="cls-1" d="M373.12,328.91c-18.03,0-38.7-6.44-58.99-12.77-9.23-2.88-18.79-5.86-27.99-8.21-2.45-.63-3.92-3.12-3.3-5.57.63-2.44,3.1-3.94,5.57-3.3,9.43,2.41,19.09,5.43,28.44,8.34,35.34,11.03,68.76,21.46,86.11-.41,4.38-5.52,5.91-12.07,4.68-20.02-4.03-25.95-38.19-63.97-87.03-96.84-2.09-1.41-2.65-4.25-1.24-6.36,1.42-2.11,4.27-2.64,6.36-1.24,40.47,27.25,85.62,68.62,90.96,103.03,1.62,10.47-.58,19.59-6.55,27.11-9.52,12-22.4,16.24-37.02,16.24Z"/>
  <path class="cls-1" d="M497.92,274.94c-40.23,0-101.78-47.58-148.93-84.04-6.82-5.27-13.23-10.24-19.08-14.64-2.01-1.53-2.41-4.4-.89-6.42,1.53-2.02,4.4-2.4,6.42-.89,5.86,4.43,12.31,9.41,19.16,14.71,48.5,37.51,129.69,100.26,160.02,77.13,33.5-25.56,6.78-101.92-16.23-157.15-.97-2.33.13-5.01,2.47-5.99,2.31-.94,5.01.13,5.99,2.47,24.17,58.02,51.86,138.55,13.34,167.94-6.25,4.76-13.78,6.87-22.25,6.87Z"/>
  <path class="cls-1" d="M561.79,234.99c-3.75,0-7.54-.78-11.28-2.33-2.33-.97-3.43-3.66-2.47-5.99.97-2.34,3.68-3.41,5.99-2.47,6.1,2.56,12.14,2.09,17.95-1.31,16.29-9.59,38.46-45.52,51.59-162.21.29-2.52,2.57-4.33,5.06-4.04,2.51.29,4.32,2.55,4.04,5.06-10.88,96.71-29.74,153.6-56.04,169.08-4.77,2.81-9.78,4.22-14.84,4.22Z"/>
  <path class="cls-1" d="M643.51,225.71c-1.54,0-3.03-.77-3.9-2.17-1.33-2.15-.67-4.96,1.48-6.29.74-.46,74.76-47.31,81.57-134.63.19-2.52,2.49-4.51,4.92-4.2,2.52.2,4.4,2.4,4.2,4.92-7.18,92.05-82.67,139.72-85.88,141.7-.75.46-1.58.68-2.4.68Z"/>
  <path class="cls-1" d="M726.46,212.98c-1.73,0-3.24-.32-4.59-.8-18.15-6.54-11.75-51.84-10.27-60.85.41-2.51,2.8-4.22,5.25-3.78,2.49.4,4.19,2.75,3.78,5.25-3.16,19.49-3.42,47.97,4.34,50.77,4.72,1.65,24.84-1.84,91.23-115.01,1.3-2.2,4.12-2.89,6.27-1.64,2.18,1.28,2.91,4.09,1.64,6.27-59.68,101.72-84.69,119.79-97.64,119.79Z"/>
  <path class="cls-1" d="M824.11,210.56c-4.65,0-8.05-1.32-10.77-3.07-29.38-18.98,11.96-123.34,20.55-144.07.97-2.32,3.64-3.46,5.98-2.48,2.33.97,3.44,3.65,2.48,5.98-18.74,45.27-41.85,121.37-24.04,132.87,8.62,5.61,36.76.66,127.31-95.74,1.74-1.84,4.63-1.92,6.47-.2,1.84,1.73,1.93,4.62.2,6.47-77.08,82.08-111.01,100.24-128.18,100.24Z"/>
  <path class="cls-1" d="M869.31,249.03c-6.45,0-9.77-2.01-11.73-4.77-14.65-20.74,75.62-103.19,115.12-137.69,1.9-1.64,4.78-1.47,6.46.44,1.66,1.9,1.47,4.8-.44,6.46-67.83,59.23-119.88,116.71-113.66,125.5,1.74,2.48,18.24,10.32,171.81-76.09,2.18-1.24,4.99-.46,6.23,1.74,1.24,2.2.46,5-1.74,6.23-109.93,61.86-153.69,78.17-172.06,78.17Z"/>
  <path class="cls-1" d="M899.78,290.04c-1.73,0-3.38-.98-4.16-2.65-1.05-2.3-.05-5.01,2.23-6.08,14.2-6.55,139.67-63.22,173.44-34.77,8.39,7.07,10.62,18.26,6.61,33.25-.66,2.45-3.16,3.85-5.6,3.24-2.45-.66-3.9-3.16-3.24-5.6,3.07-11.42,1.87-19.25-3.65-23.89-24.84-20.89-126.6,18.96-163.71,36.09-.63.29-1.28.42-1.92.42Z"/>
  <path class="cls-1" d="M1110.26,350.18c-1.27,0-2.54-.53-3.44-1.56-52.54-59.9-180.03-8.47-181.31-7.94-2.32.97-5.01-.16-5.98-2.49-.96-2.34.16-5.01,2.49-5.98,5.5-2.25,134.89-54.38,191.68,10.37,1.66,1.9,1.47,4.79-.42,6.46-.88.76-1.95,1.14-3.02,1.14Z"/>
  <path class="cls-1" d="M970.15,615.2c-1.2,0-2.4-.46-3.29-1.39-4.18-4.34-101.83-106.98-46.68-176.43,15.96-20.09,34.99-31.41,56.57-33.64,38.82-4.14,71.91,22.94,73.3,24.08,1.95,1.62,2.21,4.5.6,6.44-1.61,1.96-4.5,2.21-6.44.6-.3-.26-31.52-25.75-66.58-22.02-19.01,1.98-35.93,12.15-50.27,30.21-50.22,63.24,45.12,163.38,46.09,164.38,1.76,1.82,1.71,4.72-.11,6.47-.89.86-2.04,1.29-3.18,1.29Z"/>
  <path class="cls-1" d="M908.1,714.22c-1.75,0-3.43-1.02-4.18-2.73-35.29-79.71-43.37-126.85-24.7-144.11,16.31-15.08,45.49.38,46.72,1.06,2.23,1.2,3.06,3.97,1.85,6.19-1.19,2.22-3.98,3.04-6.19,1.86-6.82-3.66-26.61-11.26-36.18-2.39-8.55,7.93-16.45,35.85,26.86,133.68,1.03,2.31-.02,5.01-2.33,6.03-.6.27-1.22.39-1.85.39Z"/>
  <path class="cls-1" d="M868.51,810.93c-1.75,0-3.42-1.01-4.18-2.72-45.2-101.79-57.96-158.26-39.03-172.65,16.71-12.67,48.18,12.49,51.71,15.39,1.95,1.61,2.23,4.49.62,6.44-1.61,1.96-4.51,2.23-6.44.63-7.52-6.18-31.03-22.32-40.36-15.16-6.72,5.11-16.1,31.1,41.86,161.63,1.03,2.32-.02,5.01-2.32,6.04-.61.27-1.23.39-1.86.39Z"/>
  <path class="cls-1" d="M784.47,794.19c-1.99,0-3.82-1.31-4.4-3.31-5.88-20.4-33.99-122.96-9.17-139.3,7.81-5.13,18.41-2.06,32.37,9.4,1.95,1.61,2.23,4.49.63,6.44-1.62,1.96-4.51,2.23-6.44.63-10.03-8.23-17.69-11.4-21.52-8.83-14.1,9.27-.92,81.08,12.93,129.1.7,2.43-.7,4.97-3.13,5.67-.42.13-.85.18-1.27.18Z"/>
</svg>